<?xml version="1.0" standalone="no"?><!DOCTYPE svg PUBLIC "-//W3C//DTD SVG 1.1//EN" "http://www.w3.org/Graphics/SVG/1.1/DTD/svg11.dtd"><svg t="1743835391029" class="icon" viewBox="0 0 1024 1024" version="1.1" xmlns="http://www.w3.org/2000/svg" p-id="4742" xmlns:xlink="http://www.w3.org/1999/xlink" width="200" height="200"><path d="M252.871111 590.222222v-103.253333H220.444444v-25.031111h2.844445a43.804444 43.804444 0 0 0 28.444444-6.826667 28.444444 28.444444 0 0 0 9.955556-21.902222h28.444444v157.013333zM430.364444 471.04H398.222222a21.333333 21.333333 0 0 0-5.688889-10.524444 13.653333 13.653333 0 0 0-9.671111-3.413334 16.497778 16.497778 0 0 0-14.791111 9.955556 71.395556 71.395556 0 0 0-6.542222 28.444444 43.235556 43.235556 0 0 1 12.515555-8.248889 35.271111 35.271111 0 0 1 13.653334-2.844444 40.96 40.96 0 0 1 32.711111 13.937778 56.888889 56.888889 0 0 1 11.946667 38.115555 62.008889 62.008889 0 0 1-13.653334 42.666667 47.502222 47.502222 0 0 1-37.546666 15.644444 45.795556 45.795556 0 0 1-39.822223-20.764444 108.373333 108.373333 0 0 1-14.222222-60.586667 109.511111 109.511111 0 0 1 15.36-62.577778 49.208889 49.208889 0 0 1 43.235556-22.186666 43.235556 43.235556 0 0 1 31.004444 11.377778 45.795556 45.795556 0 0 1 13.653333 31.004444z m-48.64 95.004444a15.644444 15.644444 0 0 0 13.368889-6.826666 32.711111 32.711111 0 0 0 4.835556-19.057778 31.573333 31.573333 0 0 0-4.835556-18.773333 15.644444 15.644444 0 0 0-13.368889-6.542223 15.928889 15.928889 0 0 0-13.653333 6.542223 39.537778 39.537778 0 0 0 0 38.115555 15.928889 15.928889 0 0 0 13.653333 6.257778zM714.524444 417.848889l-35.84 42.382222a14.222222 14.222222 0 0 0 10.808889 23.324445h71.68a14.222222 14.222222 0 0 0 10.808889-23.324445l-35.84-42.382222a14.222222 14.222222 0 0 0-21.617778 0zM736.142222 606.151111l35.84-42.382222a14.222222 14.222222 0 0 0-10.808889-23.324445h-71.68a14.222222 14.222222 0 0 0-10.808889 23.324445l35.84 42.382222a14.222222 14.222222 0 0 0 21.617778 0z" p-id="4743"></path><path d="M824.888889 284.444444H199.111111a85.333333 85.333333 0 0 0-85.333333 85.333334v284.444444a85.333333 85.333333 0 0 0 85.333333 85.333334h625.777778a85.333333 85.333333 0 0 0 85.333333-85.333334V369.777778a85.333333 85.333333 0 0 0-85.333333-85.333334z m28.444444 355.555556a42.666667 42.666667 0 0 1-42.666666 42.666667h-597.333334A42.666667 42.666667 0 0 1 170.666667 640v-256A42.666667 42.666667 0 0 1 213.333333 341.333333h597.333334a42.666667 42.666667 0 0 1 42.666666 42.666667z" p-id="4744"></path></svg>