<?xml version="1.0" standalone="no"?><!DOCTYPE svg PUBLIC "-//W3C//DTD SVG 1.1//EN" "http://www.w3.org/Graphics/SVG/1.1/DTD/svg11.dtd"><svg t="1743834139811" class="icon" viewBox="0 0 1024 1024" version="1.1" xmlns="http://www.w3.org/2000/svg" p-id="2741" xmlns:xlink="http://www.w3.org/1999/xlink" width="200" height="200"><path d="M195.584 521.216H119.296v-43.008h76.288v43.008z m213.504-204.288h-42.496v-76.8h42.496v76.8z m-218.624 351.232l53.76-54.272 30.208 30.208-53.76 54.272-30.208-30.208z m30.208-367.104l53.76 54.272-30.208 30.208-53.76-54.272 30.208-30.208zM509.44 384L408.576 485.888v205.824H343.552V459.776C348.16 455.68 463.872 337.92 463.872 337.92l45.568 46.08z m-139.264 472.576v-61.952c-158.72 0-287.744-130.048-287.744-289.792C82.432 345.088 211.456 215.04 370.176 215.04c145.92 0 266.24 109.568 285.184 250.88l-44.032-43.52-43.52 43.52 119.808 120.832L807.936 465.92l-43.52-43.52-47.104 47.616C700.416 292.864 551.424 153.6 370.176 153.6 177.664 153.6 20.992 311.296 20.992 504.832c0 194.048 156.672 351.744 349.184 351.744z" p-id="2742"></path></svg>